<?xml version="1.0" standalone="no"?>
<!DOCTYPE svg PUBLIC "-//W3C//DTD SVG 20010904//EN"
 "http://www.w3.org/TR/2001/REC-SVG-20010904/DTD/svg10.dtd">
<svg version="1.0" xmlns="http://www.w3.org/2000/svg"
 width="700.000000pt" height="700.000000pt" viewBox="0 0 700.000000 700.000000"
 preserveAspectRatio="xMidYMid meet">
<metadata>
Created by potrace 1.14, written by Peter Selinger 2001-2017
</metadata>
<g transform="translate(0.000000,700.000000) scale(0.100000,-0.100000)"
fill="#000000" stroke="none">
<path d="M3452 6647 c-32 -19 -62 -67 -62 -100 0 -33 14 -63 46 -97 12 -14 35
-51 50 -84 23 -51 26 -67 22 -135 -5 -88 -25 -133 -91 -207 -66 -74 -119 -169
-133 -239 -2 -11 -6 -31 -9 -45 -7 -29 -7 -145 -1 -175 29 -146 127 -302 199
-320 77 -20 147 32 147 109 0 36 -7 53 -40 94 -53 67 -72 114 -76 192 -4 86
24 155 99 243 59 70 109 158 123 217 4 19 9 42 11 50 2 8 5 44 7 80 5 134 -44
271 -131 369 -42 46 -54 54 -93 57 -27 3 -54 -1 -68 -9z"/>
<path d="M2174 5950 c-36 -14 -64 -59 -64 -103 0 -31 10 -53 45 -103 112 -157
101 -285 -40 -439 -48 -53 -112 -186 -123 -255 -27 -175 31 -363 146 -473 77
-73 202 -23 202 80 0 28 -8 44 -68 127 -77 107 -68 268 18 366 130 146 171
245 171 405 -1 120 -35 219 -112 322 -56 75 -112 99 -175 73z"/>
<path d="M4728 5943 c-62 -39 -70 -122 -18 -182 115 -135 112 -294 -10 -436
-108 -127 -151 -240 -145 -390 4 -130 48 -241 133 -340 66 -78 166 -72 206 13
22 45 13 85 -31 139 -68 85 -93 188 -68 284 14 52 36 87 102 164 51 59 107
170 122 240 16 78 7 210 -18 284 -32 92 -108 203 -159 230 -30 16 -83 13 -114
-6z"/>
<path d="M3448 5005 c-2 -2 -21 -5 -43 -8 -113 -16 -225 -76 -320 -171 -107
-108 -164 -242 -167 -392 l-1 -69 -101 -23 c-228 -50 -513 -155 -723 -267
-283 -152 -502 -314 -733 -545 -355 -355 -598 -751 -749 -1220 -39 -123 -92
-338 -95 -389 -1 -15 -4 -17 -156 -117 -239 -158 -372 -343 -357 -497 15 -162
148 -303 417 -441 162 -84 308 -140 554 -215 114 -35 498 -125 581 -137 22 -3
47 -7 55 -9 8 -3 56 -12 105 -20 92 -16 108 -19 185 -30 25 -4 56 -8 70 -10
14 -2 45 -7 70 -10 25 -3 61 -8 80 -10 59 -8 103 -13 165 -20 33 -3 78 -8 100
-10 46 -6 110 -11 222 -20 297 -24 475 -30 913 -30 382 1 543 5 735 20 28 2
91 6 140 10 50 3 106 8 125 10 62 6 154 16 190 20 19 2 60 7 91 10 31 3 66 7
77 10 11 2 49 6 83 10 35 4 66 8 69 10 3 2 32 6 65 9 33 4 67 8 75 11 8 2 33
6 55 10 22 3 65 10 95 15 30 6 69 13 85 15 17 3 37 8 45 10 8 2 31 7 50 10 71
12 269 58 410 95 569 151 942 352 1051 567 31 60 34 75 33 147 -1 63 -6 92
-24 131 -29 61 -93 146 -151 201 -62 57 -201 159 -269 197 -57 31 -58 33 -70
92 -125 622 -403 1141 -850 1585 -348 346 -750 591 -1215 740 -55 17 -109 34
-120 36 -11 3 -63 15 -115 27 l-95 23 -1 40 c-4 281 -172 504 -434 579 -47 13
-194 27 -202 20z m205 -270 c105 -52 180 -161 193 -279 l6 -56 -33 5 c-98 14
-409 20 -519 10 -25 -2 -69 -6 -98 -9 l-54 -4 5 46 c10 112 63 200 157 264 71
48 108 58 205 54 64 -2 91 -8 138 -31z m107 -559 c30 -4 78 -9 105 -12 47 -6
170 -27 225 -39 14 -3 34 -7 45 -10 11 -2 30 -6 43 -9 12 -3 62 -17 110 -31
458 -137 849 -370 1188 -709 268 -268 461 -555 609 -906 70 -164 150 -443 174
-600 25 -164 31 -216 36 -302 l4 -77 -87 -20 c-48 -11 -98 -22 -112 -25 -28
-5 -112 -23 -150 -31 -33 -7 -68 -14 -105 -21 -16 -3 -88 -16 -160 -29 -71
-13 -148 -26 -170 -30 -136 -21 -387 -57 -425 -61 -25 -3 -56 -6 -70 -9 -14
-2 -52 -7 -85 -10 -33 -3 -96 -10 -140 -15 -72 -8 -131 -14 -260 -25 -22 -2
-85 -6 -140 -10 -55 -4 -120 -8 -145 -10 -302 -25 -1266 -25 -1490 0 -19 2
-82 6 -140 10 -165 10 -273 19 -375 30 -22 3 -62 7 -90 10 -27 3 -66 7 -85 10
-35 4 -83 10 -175 20 -27 3 -90 12 -140 20 -49 8 -112 17 -140 20 -27 4 -57 8
-65 10 -8 3 -33 7 -55 10 -45 7 -133 21 -185 31 -19 3 -44 8 -55 9 -18 3 -140
27 -205 40 -14 3 -35 7 -48 9 -12 3 -30 7 -40 10 -9 3 -30 7 -46 10 -15 3 -70
15 -122 27 l-93 21 5 72 c2 39 7 94 10 121 3 28 8 64 10 80 4 37 17 128 19
135 1 3 5 23 9 45 27 139 96 366 154 510 139 343 346 652 621 925 254 253 535
446 858 588 123 55 411 147 519 166 13 3 32 7 42 10 9 3 35 8 57 11 22 3 56 8
75 11 19 3 46 7 60 10 14 2 68 7 120 10 52 4 96 8 98 9 6 5 350 -3 402 -9z
m-3285 -2595 c-4 -7 -9 -228 -6 -272 1 -10 12 -19 29 -21 25 -5 274 -60 332
-75 38 -9 32 -8 255 -52 229 -44 319 -59 560 -96 149 -23 155 -23 218 -30 32
-4 67 -8 77 -10 10 -2 50 -6 87 -10 37 -3 81 -8 96 -11 15 -3 44 -7 65 -9 20
-1 71 -6 112 -10 100 -9 138 -12 250 -20 52 -4 111 -9 130 -10 143 -13 412
-20 815 -20 466 0 665 6 960 29 50 4 115 9 145 11 30 3 75 7 100 10 25 2 70 7
100 10 30 3 71 7 90 10 19 3 55 7 80 9 57 6 137 16 170 21 14 2 45 7 70 10
131 17 115 14 335 50 88 14 216 36 285 50 69 13 139 27 157 30 18 3 106 21
195 41 90 20 179 40 198 44 19 5 61 14 93 20 39 9 57 18 58 29 4 47 -2 275 -8
284 -14 22 63 -32 125 -89 71 -65 124 -147 118 -181 -27 -137 -310 -295 -791
-442 -98 -30 -390 -104 -450 -115 -16 -3 -86 -16 -155 -29 -69 -14 -143 -28
-165 -31 -22 -4 -53 -8 -68 -11 -15 -2 -47 -7 -70 -10 -23 -3 -49 -8 -57 -10
-8 -2 -40 -6 -71 -10 -31 -3 -65 -7 -75 -9 -11 -2 -48 -7 -84 -11 -36 -4 -76
-9 -90 -10 -14 -2 -54 -6 -90 -9 -36 -4 -81 -9 -100 -11 -19 -2 -78 -7 -130
-10 -52 -3 -115 -8 -140 -10 -141 -12 -439 -19 -755 -19 -388 1 -561 7 -840
29 -175 15 -189 16 -320 30 -27 3 -70 7 -95 10 -25 2 -110 14 -190 26 -80 11
-154 22 -165 24 -11 1 -38 6 -59 10 -22 4 -47 9 -55 10 -9 0 -32 4 -51 8 -19
4 -46 9 -60 11 -115 19 -427 93 -578 137 -439 127 -748 283 -811 408 -22 43
-19 71 13 126 36 60 190 200 209 188 4 -2 5 -8 2 -12z"/>
<path d="M3398 3955 c-2 -1 -49 -5 -104 -9 -56 -3 -108 -8 -115 -10 -8 -3 -34
-7 -59 -10 -101 -12 -199 -35 -228 -53 -12 -8 -30 -29 -39 -47 -40 -85 35
-179 129 -161 24 5 116 22 165 30 28 5 93 12 168 20 22 2 79 5 127 6 65 1 94
6 118 20 49 30 65 83 44 151 -11 37 -62 60 -135 62 -38 2 -70 2 -71 1z"/>
<path d="M2150 3563 c-263 -174 -472 -377 -659 -641 -118 -167 -201 -320 -302
-557 -41 -98 -122 -386 -135 -481 -11 -91 44 -152 128 -141 59 8 92 42 103
108 11 65 36 165 61 249 159 526 505 993 944 1276 90 57 108 76 116 120 13 70
-30 124 -103 131 -46 5 -53 2 -153 -64z"/>
</g>
</svg>
